<svg version="1.2" xmlns="http://www.w3.org/2000/svg" viewBox="0 0 200 400" width="200" height="400">
	<title>Group 103-svg</title>
	<defs>
		<clipPath clipPathUnits="userSpaceOnUse" id="cp1">
			<path d="m159.17 39.46c-0.03-1.11 0.83-2.03 1.94-2.07l33.98-1.15c1.1-0.04 2.03 0.82 2.06 1.93l1.53 44.97c0.04 1.1-0.83 2.03-1.93 2.07l-33.98 1.15c-1.1 0.04-2.03-0.82-2.07-1.93z"/>
		</clipPath>
		<clipPath clipPathUnits="userSpaceOnUse" id="cp2">
			<path d="m94.34 427.97c-0.55 0.96-1.77 1.29-2.73 0.74l-252.88-146c-0.95-0.56-1.28-1.78-0.73-2.74l174.5-302.24c0.55-0.95 1.78-1.28 2.73-0.73l252.88 146c0.96 0.55 1.29 1.78 0.73 2.73z"/>
		</clipPath>
	</defs>
	<style>
		.s0 { fill: #ffffff } 
	</style>
	<g id="Clip-Path" clip-path="url(#cp1)">
		<g id="Layer">
			<path id="Layer" class="s0" d="m173.6 65.2c5.2-2.8 10.2-6 14.8-9.8 0.6-0.6 1.7 0.4 1 1-4.7 3.8-9.7 7.1-15.1 9.9-0.8 0.4-1.5-0.7-0.7-1.1z"/>
			<path id="Layer" class="s0" d="m159.8 56.8c1-6.5 2.4-12.8 4.5-19 0.3-0.9 1.6-0.6 1.4 0.3-2.1 6.2-3.6 12.6-4.6 19-0.1 0.9-1.4 0.6-1.3-0.3z"/>
			<path id="Layer" class="s0" d="m179.4 80.8q9.4 1.5 18.8 3c0.9 0.2 0.6 1.5-0.3 1.4q-9.4-1.6-18.9-3.1c-0.9-0.1-0.5-1.5 0.4-1.3z"/>
		</g>
	</g>
	<g id="Clip-Path" clip-path="url(#cp2)">
		<g id="Layer">
			<path id="Layer" class="s0" d="m39.1 396.9q9.5-1.5 18.8-4.2c25.8-7.6 49.5-21.5 69.1-39.8 10-9.3 18.8-19.7 26.3-31 7.8-11.7 14.4-24.5 18.4-38.1 4-14.1 4.5-28.6 0-42.7-4.5-14.4-12.7-27.9-22.3-39.5-16.1-19.3-44-39.8-70-26.6-9.8 4.9-18.2 14.1-20.4 25.1-2.7 13.5 5.9 25.1 16.5 32.4 11.7 8.2 26 12.4 40 7.9 12.7-4.2 23.2-13.7 31.2-24.2 17.1-22.8 24.2-52.5 21.3-80.7-2.7-27.6-14.9-53.8-32.3-75.2-16.6-20.3-38.1-36.6-62.6-46.4-24.2-9.6-50.9-12.5-76.4-6.4-0.9 0.2-1.3-1.2-0.4-1.5 6.3-1.5 12.8-2.5 19.3-3 26.7-1.9 53.6 5.3 76.7 18.6 24 13.6 44.2 33.7 58.2 57.4 14.7 24.8 22.2 53.8 18.9 82.5-3.1 27.7-15.9 56.8-39.3 73.2-11.2 7.8-24.6 11.3-37.9 7.6-7-2-13.6-5.5-19.3-9.8-5.3-4.1-10.1-9-13-15-10.5-21.9 10.4-45.6 32.1-47.8 14-1.5 27.7 4.1 38.9 12.2 12.3 8.9 22.4 20.8 30.4 33.6 7.8 12.5 14.1 26.6 15.1 41.5 1.1 14.8-3 29.5-9 42.9-11.6 25.7-30.3 48.3-52.7 65.5-21.9 16.8-47.8 28.6-75.2 33-0.9 0.2-1.3-1.3-0.4-1.5z"/>
		</g>
	</g>
</svg>