<svg width="20" height="19" viewBox="0 0 20 19" fill="none" xmlns="http://www.w3.org/2000/svg">
<path fill-rule="evenodd" clip-rule="evenodd" d="M18.2444 0.948621C18.4561 0.865443 18.6865 0.841618 18.9108 0.879715C19.135 0.917813 19.3447 1.01639 19.517 1.16482C19.6894 1.31325 19.818 1.5059 19.889 1.72203C19.96 1.93815 19.9707 2.16954 19.9198 2.39128L16.3936 17.7787C16.3452 17.9898 16.2428 18.1847 16.0965 18.3443C15.9501 18.5039 15.7649 18.6227 15.5588 18.6892C15.3527 18.7556 15.1329 18.7674 14.9209 18.7233C14.7089 18.6793 14.5119 18.5809 14.3494 18.4379L6.02033 11.1083L1.15409 10.1351C0.889309 10.0821 0.648799 9.94485 0.468543 9.74381C0.288287 9.54277 0.177978 9.28876 0.154121 9.0198C0.130264 8.75083 0.194141 8.48137 0.336196 8.25174C0.478251 8.02211 0.690844 7.84465 0.942166 7.74591L18.2444 0.948621ZM18.7433 1.86559C18.6984 1.85797 18.6524 1.86274 18.61 1.87937L1.30782 8.67667C1.25755 8.69641 1.21504 8.7319 1.18663 8.77783C1.15821 8.82376 1.14544 8.87765 1.15021 8.93144C1.15498 8.98524 1.17704 9.03604 1.21309 9.07625C1.24915 9.11645 1.29725 9.14391 1.3502 9.1545L6.34799 10.1541C6.43417 10.1713 6.51428 10.2109 6.58025 10.269L15.01 17.6872C15.0425 17.7158 15.0819 17.7354 15.1243 17.7443C15.1667 17.7531 15.2107 17.7507 15.2519 17.7374C15.2931 17.7241 15.3301 17.7004 15.3594 17.6684C15.3887 17.6365 15.4092 17.5975 15.4188 17.5553L18.9451 2.1679C18.9553 2.12356 18.9531 2.07728 18.939 2.03405C18.9248 1.99083 18.899 1.9523 18.8646 1.92261C18.8301 1.89293 18.7882 1.87321 18.7433 1.86559Z" fill="white"/>
<path fill-rule="evenodd" clip-rule="evenodd" d="M19.4158 1.13551C19.5775 1.35938 19.527 1.67192 19.3032 1.8336L6.54266 11.0495C6.3188 11.2112 6.00625 11.1608 5.84457 10.9369C5.6829 10.7131 5.73331 10.4005 5.95717 10.2389L18.7177 1.02292C18.9416 0.861241 19.2541 0.911651 19.4158 1.13551Z" fill="white"/>
<path fill-rule="evenodd" clip-rule="evenodd" d="M6.24994 10.1445C6.52608 10.1445 6.74994 10.3684 6.74994 10.6445V16.7487C6.74994 16.7982 6.7646 16.8465 6.79207 16.8876C6.81954 16.9287 6.85859 16.9608 6.90427 16.9797C6.94995 16.9986 7.00022 17.0036 7.04871 16.9939C7.09721 16.9843 7.14175 16.9605 7.17672 16.9255L10.1064 13.9958C10.3017 13.8005 10.6183 13.8005 10.8135 13.9958C11.0088 14.1911 11.0088 14.5077 10.8135 14.7029L7.88382 17.6326L7.54441 17.2932L7.88382 17.6326C7.70901 17.8074 7.48628 17.9265 7.2438 17.9747C7.00133 18.023 6.74999 17.9982 6.52159 17.9036C6.29318 17.809 6.09796 17.6488 5.9606 17.4432C5.82325 17.2376 5.74994 16.996 5.74994 16.7487V10.6445C5.74994 10.3684 5.9738 10.1445 6.24994 10.1445Z" fill="white"/>
</svg>
