<svg width="24" height="24" viewBox="0 0 24 24" xmlns="http://www.w3.org/2000/svg">
<g transform="matrix(0.025000002 0 0 0.025000002 0 0)">
    <path d="M0 480L0 0L480 0L960 0L960 480L960 960L480 960L0 960L0 480z" stroke="none" fill="none"/>
	<g>
        <path d="M387 850C 366 844 337 834 321 825C 295 812 286 813 226 830C 121 860 100 840 129 738L129 738L148 673L123 599C 73 453 112 305 225 201C 301 132 371 106 480 106C 598 106 665 133 746 214C 827 295 854 362 854 480C 854 598 827 665 746 746C 701 790 669 813 625 830C 558 855 447 865 387 850zM622 788C 693 755 755 694 789 621C 811 574 815 551 815 480C 815 409 811 386 789 339C 755 267 693 205 621 171C 540 133 420 133 339 171C 267 205 205 267 171 339C 136 415 134 539 168 615L168 615L190 665L171 732C 160 768 154 801 157 803C 159 806 192 799 230 789C 287 772 304 771 322 781C 408 827 530 830 622 788z" stroke="none" fill="#FFFFFF" fill-rule="nonzero"/>
        <path d="M466 664C 342 626 244 448 293 350C 311 314 369 279 405 282C 428 284 442 296 468 335C 490 369 499 392 495 407C 492 420 487 442 484 456C 478 481 479 482 504 476C 518 473 540 468 553 465C 586 456 674 517 678 552C 685 614 618 681 550 679C 531 679 493 672 466 664zM614 615C 653 579 648 548 599 521C 559 498 558 498 525 516C 492 534 490 533 470 515C 433 481 427 463 446 431C 462 404 462 401 440 361C 412 312 386 308 345 346C 320 370 318 376 323 426C 333 521 390 595 479 626C 537 647 583 643 614 615z" stroke="none" fill="#FFFFFF" fill-rule="nonzero"/>
	</g>
</g>
</svg>