<svg width="20" height="20" viewBox="0 0 20 20" fill="none" xmlns="http://www.w3.org/2000/svg">
<path d="M2.25889 14.5936C1.1407 12.7086 0.749097 10.4802 1.15762 8.32695C1.56615 6.17366 2.74669 4.24356 4.47758 2.89909C6.20846 1.55462 8.37062 0.888259 10.558 1.02514C12.7455 1.16202 14.8077 2.09273 16.3575 3.6425C17.9072 5.19226 18.838 7.25448 18.9749 9.4419C19.1117 11.6293 18.4454 13.7915 17.1009 15.5224C15.7565 17.2533 13.8264 18.4338 11.6731 18.8424C9.5198 19.2509 7.29143 18.8593 5.40643 17.7411L5.40645 17.741L2.29802 18.6292C2.16942 18.6659 2.03332 18.6676 1.90385 18.634C1.77437 18.6005 1.65622 18.5329 1.56165 18.4384C1.46707 18.3438 1.3995 18.2256 1.36595 18.0961C1.3324 17.9667 1.33409 17.8306 1.37083 17.702L2.25896 14.5935L2.25889 14.5936Z" stroke="white" stroke-linecap="round" stroke-linejoin="round"/>
<path d="M5.49995 8.06494L5.49995 8.06405C5.50214 7.38288 5.77441 6.7304 6.25705 6.24972C6.73964 5.76908 7.39315 5.49947 8.07426 5.5M5.49995 8.06494L8.95143 6.00919C8.86304 5.85451 8.73533 5.72594 8.58124 5.63652C8.42728 5.54717 8.25245 5.50008 8.07444 5.5C8.07438 5.5 8.07432 5.5 8.07426 5.5M5.49995 8.06494C5.49874 8.91034 5.66437 9.74767 5.98734 10.529C6.3103 11.3102 6.78426 12.0201 7.38205 12.6179C7.97984 13.2157 8.68971 13.6896 9.47099 14.0126C10.2523 14.3356 11.0896 14.5012 11.935 14.5L11.9343 14L5.49995 8.06494ZM8.07426 5.5C8.07417 5.5 8.07409 5.5 8.07401 5.5L8.07401 6L8.07426 5.5ZM10.2119 10.8897L10.4691 11.3185L10.6746 10.8626C10.5969 10.8277 10.5211 10.7896 10.4471 10.7486L10.2119 10.8897ZM9.1102 9.78805L9.25135 9.5528C9.21035 9.47886 9.17229 9.403 9.13731 9.32538L8.68146 9.5308L9.1102 9.78805Z" stroke="white" stroke-linecap="round" stroke-linejoin="round"/>
</svg>
