<svg width="37" height="33" viewBox="0 0 37 33" fill="none" xmlns="http://www.w3.org/2000/svg">
<path fill-rule="evenodd" clip-rule="evenodd" d="M31.1117 13.0164C30.2862 13.0864 29.5603 12.4741 29.4902 11.6486C29.2702 9.05588 28.854 6.48224 28.433 3.87908C28.3985 3.66584 28.364 3.4524 28.3296 3.23873C28.1977 2.42086 28.7538 1.65097 29.5717 1.51912C30.3896 1.38726 31.1595 1.94339 31.2913 2.76126C31.3265 2.97957 31.362 3.19865 31.3975 3.41846C31.8153 6.00057 32.2494 8.68338 32.4795 11.395C32.5495 12.2204 31.9371 12.9464 31.1117 13.0164Z" fill="#EC7973"/>
<path fill-rule="evenodd" clip-rule="evenodd" d="M21.2732 17.2606C20.6712 17.8296 19.7218 17.8029 19.1528 17.2008L13.6577 11.3867C13.0886 10.7846 13.1154 9.83526 13.7175 9.26622C14.3195 8.69719 15.2689 8.72396 15.8379 9.32603L21.3331 15.1401C21.9021 15.7422 21.8753 16.6916 21.2732 17.2606Z" fill="#EC7973"/>
<path fill-rule="evenodd" clip-rule="evenodd" d="M5.1924 24.8818C5.48075 24.925 5.8353 24.9946 6.22555 25.143C6.94996 25.4183 7.71512 25.6258 8.54494 25.8304C8.74416 25.8796 8.94982 25.9291 9.15981 25.9798C9.79676 26.1333 10.4735 26.2964 11.131 26.4861C11.927 26.7156 12.3861 27.547 12.1565 28.343C11.9269 29.139 11.0955 29.5981 10.2996 29.3685C9.71154 29.1989 9.12827 29.0583 8.50941 28.9091C8.28701 28.8555 8.06 28.8007 7.82654 28.7431C6.96969 28.5318 6.06033 28.2895 5.15968 27.9472C4.96494 27.8732 4.85978 27.8612 4.65599 27.8379C4.51797 27.8222 4.33472 27.8013 4.04777 27.7524C3.38304 27.6393 2.63282 27.3828 1.90986 26.6179C1.34082 26.0158 1.3676 25.0664 1.96966 24.4974C2.57173 23.9283 3.5211 23.9551 4.09014 24.5572C4.25293 24.7294 4.34368 24.7596 4.55115 24.795C4.62421 24.8074 4.70506 24.8181 4.81573 24.8319C4.82885 24.8336 4.84256 24.8353 4.85676 24.837C4.95279 24.8489 5.07185 24.8637 5.1924 24.8818Z" fill="#EC7973"/>
</svg>
