<svg width="32" height="32" viewBox="0 0 32 32" fill="none" xmlns="http://www.w3.org/2000/svg">
<path fill-rule="evenodd" clip-rule="evenodd" d="M8.10985 20.9871C8.2845 21.511 8.00134 22.0773 7.47739 22.252C5.25103 22.9941 4.08442 24.857 3.46946 26.7019C3.17605 27.5821 3.02228 28.4217 2.94235 29.0577C3.57836 28.9777 4.4179 28.824 5.29814 28.5306C7.14303 27.9156 9.0059 26.749 9.74802 24.5226C9.92266 23.9987 10.489 23.7155 11.0129 23.8902C11.5369 24.0648 11.82 24.6311 11.6454 25.1551C10.6197 28.232 8.06318 29.7171 5.9306 30.4279C4.85533 30.7863 3.84672 30.9637 3.10949 31.0522C2.73941 31.0966 2.43389 31.119 2.21771 31.1304C2.10952 31.1361 2.02343 31.139 1.96249 31.1405C1.93202 31.1413 1.90781 31.1417 1.89025 31.1419L1.86894 31.1421L1.8621 31.1421L1.85966 31.1421C1.85924 31.1421 1.85786 31.1421 1.85786 30.1421C0.857864 30.1421 0.857864 30.1418 0.857864 30.1413L0.857871 30.1379L0.857902 30.1311L0.858099 30.1098C0.85831 30.0922 0.85871 30.068 0.859466 30.0375C0.860977 29.9766 0.86391 29.8905 0.869604 29.7823C0.880982 29.5661 0.903442 29.2606 0.947851 28.8905C1.03632 28.1533 1.21367 27.1447 1.57209 26.0694C2.28296 23.9368 3.768 21.3803 6.84494 20.3546C7.36888 20.18 7.9352 20.4631 8.10985 20.9871ZM1.85786 30.1421L0.857864 30.1413C0.857864 30.6936 1.30558 31.1421 1.85786 31.1421V30.1421Z" fill="#961914"/>
<path fill-rule="evenodd" clip-rule="evenodd" d="M29.1333 2.6609C27.6448 2.4388 23.9779 2.36525 20.2426 6.10049L10.3431 16L16 21.6568L25.8995 11.7573C29.6347 8.0221 29.5612 4.3552 29.3391 2.86664L29.3391 2.86651C29.3314 2.81475 29.3072 2.76682 29.2702 2.7298C29.2332 2.69278 29.1853 2.66863 29.1335 2.66092L29.1333 2.6609ZM29.4284 0.682774C27.4912 0.393775 23.1256 0.389068 18.8284 4.68628L8.22183 15.2929C8.03429 15.4804 7.92894 15.7348 7.92894 16C7.92894 16.2652 8.03429 16.5196 8.22183 16.7071L15.2929 23.7782C15.6834 24.1687 16.3166 24.1687 16.7071 23.7782L27.3137 13.1716C31.6109 8.87435 31.6062 4.50881 31.3172 2.57164M29.4285 0.682793C29.9041 0.753721 30.3444 0.975544 30.6844 1.31558C31.0244 1.65561 31.2463 2.09588 31.3172 2.57151" fill="#961914"/>
<path fill-rule="evenodd" clip-rule="evenodd" d="M24.8388 13.2322C25.3911 13.2322 25.8388 13.6799 25.8388 14.2322V24.321C25.8388 24.6165 25.7806 24.9091 25.6676 25.1821C25.5545 25.4551 25.3888 25.7031 25.1798 25.912L20.1264 30.9654C19.8385 31.2534 19.4777 31.4578 19.0827 31.5569C18.6877 31.6559 18.2732 31.6459 17.8834 31.5279C17.4936 31.4099 17.1432 31.1883 16.8695 30.8868C16.5958 30.5852 16.409 30.215 16.3291 29.8157L15.0194 23.2672C14.9111 22.7256 15.2623 22.1988 15.8039 22.0905C16.3454 21.9822 16.8723 22.3334 16.9806 22.8749L18.2903 29.4235C18.2992 29.4678 18.3199 29.509 18.3503 29.5425C18.3807 29.576 18.4197 29.6006 18.463 29.6137C18.5063 29.6268 18.5524 29.6279 18.5962 29.6169C18.6401 29.6059 18.6802 29.5832 18.7122 29.5512L23.7656 24.4978C23.7888 24.4746 23.8072 24.4471 23.8198 24.4167C23.8324 24.3864 23.8388 24.3539 23.8388 24.321V14.2322C23.8388 13.6799 24.2866 13.2322 24.8388 13.2322Z" fill="#961914"/>
<path fill-rule="evenodd" clip-rule="evenodd" d="M6.8179 6.33245C7.09088 6.21938 7.38346 6.16118 7.67894 6.16118H17.7678C18.3201 6.16118 18.7678 6.60889 18.7678 7.16118C18.7678 7.71346 18.3201 8.16118 17.7678 8.16118H7.67893C7.6461 8.16118 7.6136 8.16764 7.58326 8.18021C7.55293 8.19277 7.52537 8.21119 7.50216 8.2344L2.44876 13.2878C2.41676 13.3198 2.39405 13.3599 2.38304 13.4038C2.37204 13.4477 2.37315 13.4937 2.38626 13.537C2.39937 13.5803 2.424 13.6193 2.4575 13.6497C2.491 13.6801 2.53213 13.7008 2.57651 13.7097L9.12505 15.0194C9.66661 15.1277 10.0178 15.6546 9.90952 16.1961C9.8012 16.7377 9.27438 17.0889 8.73282 16.9806L2.18427 15.6709C1.78493 15.591 1.41476 15.4043 1.11322 15.1305C0.811683 14.8568 0.590092 14.5064 0.472077 14.1166C0.354063 13.7268 0.34405 13.3123 0.443107 12.9173C0.542164 12.5223 0.746576 12.1616 1.03454 11.8736L6.08794 6.82019L6.78911 7.52135L6.08794 6.82019C6.29688 6.61125 6.54492 6.44552 6.8179 6.33245Z" fill="#961914"/>
</svg>
