<svg width="375" height="605" preserveAspectRatio="none" viewBox="0 0 375 605" fill="none" xmlns="http://www.w3.org/2000/svg">
<path d="M0 30.2234C8.39779 20.8155 38.8508 1.99951 93.4807 1.99951C161.768 1.99951 184.309 49.4397 222.099 83.6687C259.889 117.898 371.271 238 481.326 238C591.381 238 641.768 134.111 733.26 128.707C824.751 123.302 896.354 204.972 984.53 204.972C1072.71 204.972 1151.6 15.2107 1280.22 15.2107C1383.12 15.2107 1429.61 52.0419 1440 70.4575" stroke="#FFF4F3" stroke-width="4" stroke-linecap="round" stroke-dasharray="8 8"/>
<path d="M-447 395.224C-438.602 385.816 -408.149 367 -353.519 367C-285.232 367 -262.691 414.44 -224.901 448.669C-187.111 482.898 -75.7293 603 34.326 603C144.381 603 194.768 499.112 286.26 493.707C377.751 488.303 449.354 569.972 537.53 569.972C625.707 569.972 704.602 380.211 833.221 380.211C936.116 380.211 982.613 417.042 993 435.458" stroke="#FFF4F3" stroke-width="4" stroke-linecap="round" stroke-dasharray="8 8"/>
</svg>
