<svg width="140" height="16" viewBox="0 0 140 16" fill="none" xmlns="http://www.w3.org/2000/svg">
<path fill-rule="evenodd" clip-rule="evenodd" d="M133.343 0.92888L139.707 7.29284C140.098 7.68336 140.098 8.31653 139.707 8.70705L133.343 15.071C132.953 15.4615 132.319 15.4615 131.929 15.071C131.538 14.6805 131.538 14.0473 131.929 13.6568L136.586 8.99995H134.036C133.483 8.99995 133.036 8.55223 133.036 7.99995C133.036 7.44766 133.483 6.99995 134.036 6.99995H136.586L131.929 2.34309C131.538 1.95257 131.538 1.3194 131.929 0.92888C132.319 0.538355 132.953 0.538355 133.343 0.92888ZM4.96429 8.99995H0V6.99995H4.96429C5.51657 6.99995 5.96429 7.44766 5.96429 7.99995C5.96429 8.55223 5.51657 8.99995 4.96429 8.99995ZM13.8929 7.99995C13.8929 7.44766 14.3406 6.99995 14.8929 6.99995H24.8214C25.3737 6.99995 25.8214 7.44766 25.8214 7.99995C25.8214 8.55223 25.3737 8.99995 24.8214 8.99995H14.8929C14.3406 8.99995 13.8929 8.55223 13.8929 7.99995ZM33.75 7.99995C33.75 7.44766 34.1977 6.99995 34.75 6.99995H44.6786C45.2309 6.99995 45.6786 7.44766 45.6786 7.99995C45.6786 8.55223 45.2309 8.99995 44.6786 8.99995H34.75C34.1977 8.99995 33.75 8.55223 33.75 7.99995ZM53.6071 7.99995C53.6071 7.44766 54.0549 6.99995 54.6071 6.99995H64.5357C65.088 6.99995 65.5357 7.44766 65.5357 7.99995C65.5357 8.55223 65.088 8.99995 64.5357 8.99995H54.6071C54.0549 8.99995 53.6071 8.55223 53.6071 7.99995ZM73.4643 7.99995C73.4643 7.44766 73.912 6.99995 74.4643 6.99995H84.3929C84.9452 6.99995 85.3929 7.44766 85.3929 7.99995C85.3929 8.55223 84.9452 8.99995 84.3929 8.99995H74.4643C73.912 8.99995 73.4643 8.55223 73.4643 7.99995ZM93.3214 7.99995C93.3214 7.44766 93.7692 6.99995 94.3214 6.99995H104.25C104.802 6.99995 105.25 7.44766 105.25 7.99995C105.25 8.55223 104.802 8.99995 104.25 8.99995H94.3214C93.7692 8.99995 93.3214 8.55223 93.3214 7.99995ZM113.179 7.99995C113.179 7.44766 113.626 6.99995 114.179 6.99995H124.107C124.659 6.99995 125.107 7.44766 125.107 7.99995C125.107 8.55223 124.659 8.99995 124.107 8.99995H114.179C113.626 8.99995 113.179 8.55223 113.179 7.99995Z" fill="#EAD1D0"/>
</svg>
