<svg width="40" height="40" viewBox="0 0 40 40" fill="none" xmlns="http://www.w3.org/2000/svg">
<path fill-rule="evenodd" clip-rule="evenodd" d="M20.6775 18.9454C21.2343 18.9514 21.681 19.4285 21.6752 20.0111L21.508 36.9562C21.5022 37.5387 21.0462 38.0061 20.4895 38.0001C19.9327 37.9941 19.4861 37.517 19.4918 36.9344L19.6591 19.9893C19.6648 19.4067 20.1208 18.9394 20.6775 18.9454Z" fill="#961914"/>
<path fill-rule="evenodd" clip-rule="evenodd" d="M19.3839 2.30721C19.7244 2.10583 20.1089 2 20.5 2C20.8911 2 21.2756 2.10583 21.6161 2.30721L34.8478 10.1325C35.1975 10.3394 35.4885 10.6396 35.6909 11.0027C35.8933 11.3657 36 11.7784 36 12.1987V27.8013C36 28.2216 35.8933 28.6344 35.6909 28.9974C35.4885 29.3604 35.1975 29.6607 34.8478 29.8675L21.6161 37.6928C21.2756 37.8942 20.8911 38.0001 20.5 38.0001C20.1089 38.0001 19.7244 37.8942 19.3839 37.6928L6.15216 29.8675C5.80247 29.6607 5.51153 29.3604 5.3091 28.9974C5.10667 28.6344 5 28.2216 5 27.8013V12.1987C5 11.7784 5.10667 11.3657 5.3091 11.0027C5.51153 10.6396 5.80247 10.3394 6.15216 10.1325L19.3839 2.30721ZM20.5 4.10969C20.4565 4.10969 20.4138 4.12145 20.376 4.14382L19.8799 3.22552L20.376 4.14382L7.14428 11.9692C7.10543 11.9921 7.0731 12.0255 7.0506 12.0658C7.02811 12.1062 7.01626 12.152 7.01626 12.1987V27.8013C7.01626 27.848 7.02811 27.8939 7.0506 27.9342C7.0731 27.9745 7.10542 28.0079 7.14428 28.0309L20.376 35.8562C20.4138 35.8786 20.4565 35.8904 20.5 35.8904C20.5435 35.8904 20.5862 35.8786 20.624 35.8562L33.8557 28.0309C33.8946 28.0079 33.9269 27.9745 33.9494 27.9342C33.9719 27.8939 33.9837 27.848 33.9837 27.8013V12.1987C33.9837 12.152 33.9719 12.1062 33.9494 12.0658C33.9269 12.0255 33.8946 11.9921 33.8557 11.9692L20.624 4.14382L21.1201 3.22552L20.624 4.14382C20.5862 4.12145 20.5435 4.10969 20.5 4.10969Z" fill="#961914"/>
<path fill-rule="evenodd" clip-rule="evenodd" d="M5.30177 11.0164C5.57336 10.5079 6.18754 10.326 6.67359 10.6101L20.6615 18.7884L34.3189 10.6171C34.8023 10.3279 35.4181 10.5035 35.6945 11.0092C35.9709 11.5149 35.8031 12.1593 35.3198 12.4485L21.1677 20.9158C20.8607 21.0994 20.4842 21.1014 20.1755 20.9209L5.69008 12.4518C5.20404 12.1677 5.03019 11.525 5.30177 11.0164Z" fill="#961914"/>
<path fill-rule="evenodd" clip-rule="evenodd" d="M12.7449 6.41C13.0165 5.90144 13.6307 5.71953 14.1168 6.0037L28.7313 14.5483C29.0502 14.7347 29.2477 15.087 29.2477 15.4691V23.3805C29.2477 23.963 28.7964 24.4353 28.2396 24.4353C27.6828 24.4353 27.2315 23.963 27.2315 23.3805V16.088L13.1333 7.84538C12.6472 7.56121 12.4734 6.91857 12.7449 6.41Z" fill="#961914"/>
</svg>
