<svg width="40" height="40" viewBox="0 0 40 40" fill="none" xmlns="http://www.w3.org/2000/svg">
<path fill-rule="evenodd" clip-rule="evenodd" d="M23.9433 5.99029C24.0867 5.45696 24.6353 5.14088 25.1687 5.28432C27.4569 5.89973 29.5433 7.10559 31.2189 8.78113C32.8944 10.4567 34.1003 12.5431 34.7157 14.8313C34.8591 15.3647 34.543 15.9133 34.0097 16.0567C33.4764 16.2002 32.9277 15.8841 32.7843 15.3507C32.2599 13.4009 31.2324 11.6231 29.8047 10.1953C28.3769 8.76761 26.5991 7.74008 24.6493 7.21569C24.1159 7.07226 23.7998 6.52363 23.9433 5.99029Z" fill="#961914"/>
<path fill-rule="evenodd" clip-rule="evenodd" d="M22.6489 10.8211C22.7923 10.2878 23.3409 9.97169 23.8742 10.1151C25.3149 10.5026 26.6284 11.2618 27.6833 12.3167C28.7382 13.3715 29.4974 14.6851 29.8848 16.1257C30.0283 16.6591 29.7122 17.2077 29.1789 17.3511C28.6455 17.4946 28.0969 17.1785 27.9535 16.6452C27.657 15.5429 27.0762 14.5379 26.2691 13.7309C25.462 12.9238 24.457 12.3429 23.3548 12.0465C22.8215 11.9031 22.5054 11.3544 22.6489 10.8211Z" fill="#961914"/>
<path fill-rule="evenodd" clip-rule="evenodd" d="M12.9227 6.05209C11.3558 6.25345 9.91566 7.01852 8.87163 8.2044C7.82661 9.39141 7.25008 10.9186 7.25 12.5001C7.25 17.8707 9.38348 23.0214 13.1811 26.819C16.9787 30.6166 22.1293 32.75 27.4999 32.7501M12.9227 6.05209C12.975 6.04624 13.0277 6.05726 13.0732 6.08359C13.1194 6.11027 13.1556 6.15123 13.1764 6.20029L16.3168 13.5279C16.3331 13.5658 16.3397 13.6071 16.3361 13.6482C16.3325 13.6892 16.3188 13.7288 16.2962 13.7633L13.698 17.7333C13.4852 18.0556 13.3595 18.4274 13.3329 18.8127C13.3063 19.1991 13.3803 19.5857 13.5478 19.9349L14.4494 19.5024L13.5511 19.9418C14.9461 22.7938 17.2579 25.0951 20.1162 26.4771L20.1233 26.4805C20.4746 26.6469 20.8632 26.7191 21.2508 26.6897C21.6374 26.6605 22.0097 26.5314 22.3314 26.315C22.3323 26.3144 22.3332 26.3138 22.3341 26.3132L26.2414 23.7078C26.2759 23.6847 26.3158 23.6706 26.3572 23.6668C26.3986 23.663 26.4403 23.6696 26.4785 23.686L33.7968 26.8224L33.7998 26.8236C33.8488 26.8445 33.8898 26.8807 33.9165 26.9268C33.9428 26.9723 33.9538 27.0251 33.948 27.0773C33.7466 28.6443 32.9815 30.0844 31.7957 31.1284C30.6087 32.1734 29.0814 32.75 27.4999 32.7501M15.35 19.0678C16.5477 21.5137 18.5306 23.4876 20.9819 24.6742C21.0188 24.6912 21.0594 24.6985 21.0999 24.6954C21.1413 24.6923 21.1811 24.6785 21.2154 24.6553L21.2199 24.6523L25.1318 22.0438C25.4432 21.8361 25.8015 21.7094 26.1742 21.6752C26.5469 21.6409 26.9223 21.7002 27.2664 21.8477L34.5817 24.9828C34.5824 24.9831 34.5831 24.9834 34.5837 24.9837C35.031 25.1742 35.4044 25.5047 35.6478 25.9255C35.8915 26.347 35.9917 26.8363 35.9332 27.3197L35.9324 27.3263C35.6703 29.3776 34.6694 31.2631 33.1172 32.6296C31.5651 33.9961 29.568 34.7499 27.5001 34.7501C21.599 34.7501 15.9396 32.4059 11.7669 28.2332C7.59419 24.0605 5.25 18.4011 5.25 12.5001C5.25011 10.4321 6.00399 8.43498 7.37049 6.88282C8.73699 5.33065 10.6224 4.3298 12.6737 4.06765L12.6803 4.0668C13.1637 4.00831 13.653 4.10851 14.0745 4.35227C14.4954 4.5957 14.8259 4.96914 15.0164 5.41647C15.0167 5.41709 15.017 5.41771 15.0172 5.41833L18.1551 12.7401C18.3013 13.0811 18.3608 13.453 18.3285 13.8226C18.2961 14.1922 18.1729 14.5481 17.9697 14.8585L15.3702 18.8303L15.3673 18.8348C15.3445 18.8693 15.331 18.909 15.3282 18.9503C15.3254 18.9907 15.3329 19.0311 15.35 19.0678Z" fill="#961914"/>
</svg>
